# xmcd
#
# Track frame offsets:
# 150
# 16643
# 28678
# 43185
# 58797
# 80004
# 91141
# 109258
# 118179
# 129642
# 145198
# 160720
# 178507
# 197634
# 220564
# 238677
# 247316
# 265335
# 281180
# 305759
# 315802
# 326395
#
# Disc length: 4542 seconds
#
#
# Revision: 0
# Processed by: cddbd v1.5.2PL0 Copyright (c) Steve Scherf et al.
# Submitted via: FreeRIP 2.53 
#
DISCID=3a11bc16
DTITLE=Various Artist - 5e Festival de Boogie Woogie de la Roquebrou 2003
DYEAR=2003
DGENRE=Boogie Woogie
TTITLE0=The Tribute - Martijn Schok
TTITLE1=Cow Cow Boogie - Filiep Ketels
TTITLE2=Suitcase Blues - Michael Pewny
TTITLE3=Feeling Like In 12000 Feet - Christoph Rois
TTITLE4=Lady Be Good - Christian Bleiming
TTITLE5=Route 66 - Stefano Franco
TTITLE6=Down The Road A Piece - Ricky Nye
TTITLE7=Back Stroke - Errol Dixon
TTITLE8=Lonely Blues - Errol Dixon
TTITLE9=Germany-Holland Boogie - Christian Bleiming and Martijn Schok
TTITLE10=Holland-Austria Boogie - Martijn Schok and Michael Pewny
TTITLE11=Austria-France Boogie - Michael Pewny and Jean-Paul Amouroux
TTITLE12=Doing The Boogie Woogie - Ricky Nye, Jean-Paul Amouroux, Martijn Schok and Greta Holtrop
TTITLE13=Dinah - Philou
TTITLE14=See See Rider - Natacha and The Dumoustier Stompers
TTITLE15=Boogie Woogie Bugle Boy - Sweet System
TTITLE16=Let Me Go Home Whiskey - Greta Holtrop and Martijn Schok
TTITLE17=Two Bones And A Pick - Dirk Vandamme
TTITLE18=I Love My Whiskey - Jeff Zima
TTITLE19=Buckets Of Love - Joey's Boogie Band
TTITLE20=Pennies From Heaven - The Gigolos
TTITLE21=Oh! Marie - The Gigolos
EXTD=BW 15154
EXTT0=
EXTT1=
EXTT2=
EXTT3=
EXTT4=
EXTT5=
EXTT6=
EXTT7=
EXTT8=
EXTT9=
EXTT10=
EXTT11=
EXTT12=
EXTT13=
EXTT14=
EXTT15=
EXTT16=
EXTT17=
EXTT18=
EXTT19=
EXTT20=
EXTT21=
PLAYORDER=
